<svg width="400" height="400" viewBox="0 0 400 400" fill="none" xmlns="http://www.w3.org/2000/svg">
<path d="M185.789 329.172V336.639C185.789 336.639 195.737 332.887 203.694 340.774C211.652 348.661 208.371 361.995 208.371 361.995H215.788C215.788 361.995 215.788 345.535 208.371 336.639C200.955 327.743 185.789 329.172 185.789 329.172Z" fill="#FBDF65"/>
<path d="M185.789 329.172V336.639C185.789 336.639 195.737 332.887 203.694 340.774C211.652 348.661 208.371 361.995 208.371 361.995H215.788C215.788 361.995 215.788 345.535 208.371 336.639C200.955 327.743 185.789 329.172 185.789 329.172Z" fill="#FBDF65"/>
<path d="M185.789 329.172V336.639C185.789 336.639 195.737 332.887 203.694 340.774C211.652 348.661 208.371 361.995 208.371 361.995H215.788C215.788 361.995 215.788 345.535 208.371 336.639C200.955 327.743 185.789 329.172 185.789 329.172Z" fill="#FBDF65"/>
<path d="M185.789 328.922V336.446C185.789 336.446 175.234 332.666 166.79 340.612C158.346 348.559 161.827 361.995 161.827 361.995H153.958C153.958 361.995 153.958 345.41 161.827 336.446C169.697 327.482 185.789 328.922 185.789 328.922Z" fill="#FFEEA4"/>
<path d="M189.768 303.637H183.137V373.932H189.768V303.637Z" fill="#FBDF65"/>
<path d="M190.022 382.819C188.219 385.943 183.71 385.943 181.906 382.819L177.962 375.987C176.158 372.863 178.413 368.958 182.02 368.958L189.909 368.958C193.516 368.958 195.77 372.863 193.967 375.987L190.022 382.819Z" fill="#FBDF65"/>
<circle cx="157.274" cy="363.984" r="9.94729" fill="#FFEEA4"/>
<path d="M203.031 367.387C203.031 362.212 207.227 358.016 212.403 358.016H213.554C218.73 358.016 222.926 362.212 222.926 367.387V368.539C222.926 373.715 218.73 377.911 213.554 377.911H212.403C207.227 377.911 203.031 373.715 203.031 368.539V367.387Z" fill="#FBDF65"/>
<path d="M174.089 233.584H199.81L195.46 294.353H178.439L174.089 233.584Z" fill="#5C4200"/>
<path d="M196.952 243.23L157.096 235.6C127.14 229.86 105.927 204.099 104.319 174.49C103.291 156.099 101.362 137.773 97.8268 119.642L96.9268 115.077L108.948 114.946C123.733 114.816 137.876 116.838 150.475 121.207L196.952 243.23Z" fill="#05917D"/>
<path d="M179.117 243.23L153.836 190.436C134.859 150.824 145.988 104.329 178.152 77.38C198.158 60.6261 217.264 42.7683 234.761 23.417L239.264 18.4817L249.621 32.3134C262.422 49.3919 272.136 67.5095 277.925 85.8868L179.117 243.23Z" fill="#00AA95"/>
<path d="M333.071 84.648L329.729 67.6756C313.087 107.192 270.484 128.18 246.002 155.453C203.27 203.131 178.853 243.23 178.853 243.23H204.17C316.621 243.165 349.328 166.66 333.071 84.648Z" fill="#00CC76"/>
<path d="M329.367 67.6756L323.275 70.1382C308.204 76.2298 292.813 81.5437 277.293 86.1448C267.994 88.9314 258.631 91.4587 249.268 93.7917C208.866 103.901 178.853 140.775 178.853 184.712V243.23C178.788 243.23 283.77 176.287 329.367 67.6756Z" fill="#A5E887"/>
<path d="M172.307 255.89H146V278.744L185.404 268.587L172.307 255.89Z" fill="#FABE5C"/>
<path d="M224.252 278.682C224.252 272.961 219.606 268.297 213.883 268.297H185.228L174.859 294.437L185.228 320.533H224.252V278.682Z" fill="#FABE5C"/>
<path d="M156.47 268.297C150.729 268.297 146 272.961 146 278.682V320.533H185.404V268.297H156.47Z" fill="#FBDF65"/>
</svg>
