<svg width="346" height="251" viewBox="0 0 346 251" fill="none" xmlns="http://www.w3.org/2000/svg">
<rect width="343.651" height="250.032" rx="24" transform="matrix(1 0 0.00350544 0.999994 0.574951 0.493225)" fill="white"/>
<path d="M40.5803 40.5505C40.5803 39.1698 41.6996 38.0505 43.0803 38.0505H43.156C44.5367 38.0505 45.656 39.1698 45.656 40.5505L45.656 211.045C45.656 212.426 44.5367 213.545 43.156 213.545H43.0803C41.6996 213.545 40.5803 212.426 40.5803 211.045L40.5803 40.5505Z" fill="#B5B5B5"/>
<path d="M42.4081 213.545C41.3988 213.545 40.5806 212.727 40.5806 211.717C40.5806 210.708 41.3988 209.89 42.4081 209.89H302.688C303.698 209.89 304.516 210.708 304.516 211.717C304.516 212.727 303.698 213.545 302.688 213.545H42.4081Z" fill="#B5B5B5"/>
<path d="M64.9441 47.1909C64.9441 47.1909 133.466 122.575 200.972 113.583C268.479 104.592 260.935 159.947 287.766 192.339" stroke="#FCD89D" stroke-width="4"/>
<path d="M65 86.1697C65 86.1697 103.487 129.327 172.074 98.3563C240.662 67.3856 243.927 164.098 288.056 177.841" stroke="#8D91FC" stroke-width="4"/>
<rect x="274.022" y="41.1131" width="27.1228" height="15.4725" rx="3" fill="#5C62FA"/>
<rect x="274.023" y="66.5856" width="27.1228" height="15.4725" rx="3" fill="#FABE5C"/>
</svg>
