<svg xmlns="http://www.w3.org/2000/svg" width="346" height="251" fill="none" viewBox="0 0 346 251"><rect width="343.651" height="250.032" fill="#fff" rx="24" transform="matrix(1 0 0.00350544 0.999994 0.574951 0.615234)"/><rect width="48" height="48" x="65" y="109" fill="#FABE5C" rx="4"/><rect width="113" height="11" x="145" y="50" fill="#CCF5E4" rx="4"/><rect width="123" height="11" x="145" y="128" fill="#FEF2DE" rx="4"/><rect width="123" height="11" x="145" y="147" fill="#FEF2DE" rx="4"/><rect width="123" height="11" x="145" y="166" fill="#FEF2DE" rx="4"/><rect width="77" height="11" x="145" y="185" fill="#FEF2DE" rx="4"/><rect width="103" height="11" x="145" y="109" fill="#FEF2DE" rx="4"/><path fill="#00CC76" stroke="#00CC76" stroke-width="3" d="M106.786 71.612L97.742 62.2057C100.067 59.4414 101.341 55.9633 101.341 52.3425C101.341 43.8828 94.4587 37 85.999 37C77.5393 37 70.6565 43.8828 70.6565 52.3425C70.6565 60.8022 77.5393 67.685 85.999 67.685C89.1749 67.685 92.2013 66.7271 94.7889 64.9086L103.902 74.3863C104.283 74.7819 104.795 75 105.344 75C105.863 75 106.356 74.8019 106.731 74.4417C107.526 73.6765 107.551 72.4078 106.786 71.612ZM85.999 41.0024C92.252 41.0024 97.3391 46.0894 97.3391 52.3425C97.3391 58.5955 92.252 63.6826 85.999 63.6826C79.7459 63.6826 74.6589 58.5955 74.6589 52.3425C74.6589 46.0894 79.7459 41.0024 85.999 41.0024Z"/></svg>